# xmcd
# 
# Track frame offsets:
#     150
#     39787
#     83509
#     120869
#     163225
#     190665
#     211356
#     244532
#     268221
#     303022
# 
# Disc length: 4456
# 
# Revision: 1
# Processed by: cddbd v1.5.2PL0 Copyright (c) Steve Scherf et al.
# Submitted via: fre:ac v1.0.31
# 
DISCID=7111660a
DTITLE=Dieter B. Kabus - 5 Geschwister - 07 - In der sonderbaren Villa
DYEAR=2006
DGENRE=Vocal
TTITLE0=Auf nach Norwegen!
TTITLE1=Gestohlene Erfindungen
TTITLE2=Wie im Gefängnis
TTITLE3=Künstliche Gehirne
TTITLE4=Hausführung mit Nachtwache
TTITLE5=Geheimnisvolle Gärtner
TTITLE6=Doch ein Geheimgang?
TTITLE7=Blick in die Vergangenheit
TTITLE8=Was angelt der Angler?
TTITLE9=Frau Haugens Rache
EXTD=www.gerth.de - ArtNo. 938337
EXTT0=
EXTT1=
EXTT2=
EXTT3=
EXTT4=
EXTT5=
EXTT6=
EXTT7=
EXTT8=
EXTT9=
PLAYORDER=
